<?xml version="1.0" ?><svg data-name="Layer 1" height="88" id="Layer_1" viewBox="0 0 88 88" width="88" xmlns="http://www.w3.org/2000/svg"><defs><style>.cls-1{fill:#e10018;}.cls-2{fill:#010200;}</style></defs><title/><path class="cls-1" d="M46.43,31.82l2.28,7.11-4.46,1.43L42,33.25Zm-8.07,3.6,1.94,6.24-4.46,1.39-2-6.24ZM29.82,39l1.66,5.41L27,45.74l-1.65-5.41Z"/><path class="cls-2" d="M83,55.68a12.67,12.67,0,0,1-.83-8.92c1.86-7.39-1.62-12-3.49-14.49-.23-.31-.54-.72-.68-.94s0-.49,0-.75c-.06-1.54-.25-6.22-5.77-6.33-5-.07-5.56,4.13-5.8,5.93a6.87,6.87,0,0,1-.32,1.6c-.69,1.38-.69,1.38-2.14,1.43s-2.83.1-3.21-3.58a6,6,0,0,0-3.2-5.18c-3.56-1.79-8.32.66-9.64,1.41C38.81,29.6,15.09,39.27,11.41,40.33a10.69,10.69,0,0,0-7.16,7.73l-.07.29v10.2l13,5.64H79.3l3.64-5.66.88-1.41L83,55.68ZM12.93,45.58c4.75-1.37,35.88-14.19,37.21-14.74l.36-.18c1.62-1,4-1.66,4.56-1.34a1.82,1.82,0,0,1,.23.86c.74,7.24,5.21,8.61,8.83,8.49s5.23-1.24,6.83-4.44a10.24,10.24,0,0,0,.86-3.35c0-.36.11-.85.19-1.17a3,3,0,0,1,.42,0,9.28,9.28,0,0,1,.08,1.07,10.65,10.65,0,0,0,.18,1.8,7.69,7.69,0,0,0,1.64,2.94c1.45,1.92,3.37,4.5,2.8,8.59H66.89l-8.72,5.12H21.76L10,48.14A4.83,4.83,0,0,1,12.93,45.58ZM76.32,58.73h-58L9.65,55V53.59l11.73,1.12H59.65l8.72-5.12H76.3a18.61,18.61,0,0,0,1.23,7.24Z"/></svg>